<?xml version="1.0" encoding="iso-8859-1"?>
<svg xmlns="http://www.w3.org/2000/svg" xmlns:xlink="http://www.w3.org/1999/xlink" xml:space="preserve" version="1.1"
     height="800px" width="800px" id="Layer_1" viewBox="0 0 512 512">
<circle fill="#35277C" cx="256" cy="256" r="256" />

<path fill="#11114A" d="M512,256c0-0.796-0.022-1.588-0.031-2.384L385.801,127.448l-257.371,8.452l-1.293,107.313
	l-0.886,141.396l127.36,127.359c0.796,0.007,1.589,0.031,2.389,0.031C397.384,512,512,397.384,512,256z" />

<path fill="#D0D1D3" d="M376.673,123.259H135.327c-6.665,0-12.067,5.403-12.067,12.067v241.347
	c0,6.665,5.403,12.067,12.067,12.067h241.347c6.665,0,12.067-5.403,12.067-12.067V135.327
	C388.741,128.662,383.338,123.259,376.673,123.259z M215.488,147.394v96.539h-68.094v-32.754h41.374
	c6.665,0,12.067-5.403,12.067-12.067c0-6.665-5.403-12.067-12.067-12.067h-41.374v-39.65H215.488z M342.195,364.606v-23.273
	c0-6.665-5.403-12.067-12.067-12.067s-12.067,5.403-12.067,12.067v23.273H147.394v-96.539h80.162
	c6.665,0,12.067-5.403,12.067-12.067V147.394h61.199v39.65h-27.582c-6.665,0-12.067,5.403-12.067,12.067
	c0,6.665,5.403,12.067,12.067,12.067h39.65c6.665,0,12.067-5.403,12.067-12.067v-51.717h39.65v68.094h-23.273
	c-6.665,0-12.067,5.403-12.067,12.067c0,6.665,5.403,12.067,12.067,12.067h23.273v32.754h-39.65V256
	c0-6.665-5.403-12.067-12.067-12.067s-12.067,5.403-12.067,12.067v16.377h-16.377c-6.665,0-12.067,5.403-12.067,12.067v16.377
	h-101.71c-6.665,0-12.067,5.403-12.067,12.067s5.403,12.067,12.067,12.067h73.266v16.377c0,6.665,5.403,12.067,12.067,12.067
	c6.665,0,12.067-5.403,12.067-12.067v-16.377h16.377c6.665,0,12.067-5.403,12.067-12.067v-16.377h68.094v68.094H342.195z" />

<path fill="#A6A8AA" d="M376.673,123.259H256v24.135h44.822v39.65h-27.582c-6.665,0-12.067,5.403-12.067,12.067
	c0,6.665,5.403,12.067,12.067,12.067h39.65c6.665,0,12.067-5.403,12.067-12.067v-51.717h39.65v68.094h-23.273
	c-6.665,0-12.067,5.403-12.067,12.067c0,6.665,5.403,12.067,12.067,12.067h23.273v32.754h-39.65V256
	c0-6.665-5.403-12.067-12.067-12.067s-12.067,5.403-12.067,12.067v16.377h-16.377c-6.665,0-12.067,5.403-12.067,12.067v16.377H256
	v52.579c6.665,0,12.067-5.403,12.067-12.067v-16.377h16.377c6.665,0,12.067-5.403,12.067-12.067v-16.377h68.094v68.094h-22.411
	v-23.273c0-6.665-5.403-12.067-12.067-12.067s-12.067,5.403-12.067,12.067v23.273H256v24.135h120.673
	c6.665,0,12.067-5.403,12.067-12.067V135.327C388.741,128.662,383.338,123.259,376.673,123.259z" />
</svg>
